<?xml version="1.0" encoding="utf-8"?>
<!-- Generator: Adobe Illustrator 24.0.0, SVG Export Plug-In . SVG Version: 6.00 Build 0)  -->
<svg version="1.1" id="Layer_1" xmlns="http://www.w3.org/2000/svg" xmlns:xlink="http://www.w3.org/1999/xlink" x="0px" y="0px"
	 viewBox="0 0 1094 700" style="enable-background:new 0 0 1094 700;" xml:space="preserve">
<style type="text/css">
	.st0{fill:#222222;}
	.st1{fill:#3D92CB;}
	.st2{fill:#FFFFFF;}
</style>
<title>Asset 1</title>
<rect class="st0" width="1094" height="700"/>
<g>
	<path class="st1" d="M613,263c0.2,3.1-0.5,6.2-1.9,8.9c-2,4.4-2.5,8.5,0.9,12.8c2.2,2.8,2.4,6.6,0.2,9.2c-4.1,4.9-2.4,9.4-0.6,14.3
		c2.3,6.1,2.5,12.2-1.7,17.7c-1,1.2-2.1,2.3-3.4,3.2c-2.6,2-4.7,1.1-6.7-1s-2.5-4.5-0.4-6.4c3.9-3.7,3-7.9,1.3-11.8
		c-2.8-6.4-2.9-12.6,0.1-18.9c0.6-1.3,0.5-2.8-0.2-4.1c-3-5.7-2.6-11.5-0.2-17.3c1.8-4.5,2.4-8.7-1-12.8c-1.7-2.1-1.3-4.2,0.6-6.1
		c1.9-1.9,4.2-2.4,6.6-0.9C611.2,252.9,613.3,257.3,613,263z"/>
	<path class="st1" d="M566.5,315.2c0.9-2.8,1.5-6.2,2.8-9.3c1.8-4,1.2-7.6-0.9-11c-2.2-3.7-2.8-7,0.1-10.6c2.8-3.5,2.4-7.4,0.7-11.3
		c-2.6-6.1-3.8-12.1-0.4-18.4c2.4-4.5,7.5-6.8,10.7-4.3c2.6,2,3.2,4.6,1,7c-3.4,3.5-3,7.1-1.4,11.1c2.6,6.5,3.2,12.9,0.1,19.4
		c-0.7,1.5-0.4,3,0.3,4.5c2.7,5.8,2,11.7-0.1,17.4c-1.5,4.1-2.8,7.9,0.9,11.9c2.2,2.3,1.8,5.2-0.9,7.5c-2.6,2.2-4.6,1.2-6.8-0.5
		C568.4,325.2,567.1,320.7,566.5,315.2z"/>
	<g>
		<path class="st2" d="M552.9,450.9c-1.2-0.5-2.6-0.4-3.9-0.6c-7.5-1.3-14.5-4.1-21.2-7.7c-18.7-10.1-30-25.8-35.4-46.1
			c-1.3-4.9-1.4-10-1.6-15.1c-0.4-14-0.2-28.1-0.2-42.1c0-5.3,0-10.6,0-16c0-0.8,0.2-1.1,1.1-1.1c8.7,0,17.3,0,26,0
			c0.9,0,1.1,0.2,1.1,1.2c0,9.4,0,18.8,0,28.2c0,3.7,0.1,7.4,0.4,11.2c0.7,7.1,6.4,12.6,13.5,13c5.5,0.3,10.1-1.7,13.1-6.4
			c1.4-2.1,2.9-2.8,5.4-2.7c26.7,0.1,53.3,0.1,80,0c1.3,0,1.6,0.4,1.6,1.6c-0.1,6.6,0,13.2-0.6,19.7c-0.9,9.4-3.8,18.3-8.3,26.5
			c-7.7,14.1-19.3,24-33.8,30.7c-6.5,3-13.2,5.2-20.4,5.4c-0.2,0-0.3,0-0.4,0.2L552.9,450.9z"/>
		<path class="st2" d="M641,355.7c-0.6,1.6-1.8,2.8-3,4c-1.1,1.1-2.2,1.5-3.8,1.5c-26.4-0.1-52.8-0.1-79.3-0.1
			c-2.8,0-5.6-0.2-8.3-0.3c-3.6-0.1-5.9-3.2-6.4-6c-0.5-3.3,0.4-6.2,3-8.4c1-0.9,2.4-1.5,3.8-1.6c7.2-0.4,14.4-0.4,21.6-0.4
			c18.7-0.1,37.5-0.1,56.2,0.1c3.1,0,6.1,0.1,9.2,0.3c3.7,0.2,6.1,2.5,6.8,6.1c0,0.2-0.1,0.5,0.3,0.6V355.7z"/>
		<path class="st2" d="M453,275.2c3.7-4,8-7,12.7-9.6c4.5-2.5,9.2-4.4,14.3-5.2c14.9-2.5,29.1,7,32.6,21.7c0.9,3.7,1,7.5,1.3,11.3
			c0.1,0.7-0.3,0.7-0.8,0.7c-5.4,0.4-10.9,0.3-16.3,0c-0.7,0-0.7-0.3-0.7-0.8c0-2,0-4.1-0.4-6.1c-1.2-5.1-5.2-10.5-13.3-9.4
			c-7.4,1-14.5,3.6-20.7,7.7c-1.5,1-1.5,0.9-2.5-0.5c-2.1-2.9-4.3-5.7-6.2-8.8V275.2z"/>
		<path class="st2" d="M503.1,300c5.2,0,10.3-0.2,15.4,0.2c0.9,0.1,1.7,0.2,2.6,0.3c4.3,0.9,6.8,4.9,5.9,9.7c-0.7,4-3.1,5.8-7.9,6.2
			c-6.9,0.5-13.8,0.3-20.7,0.3c-3.2,0-6.4,0-9.5-0.5c-5-0.8-7.7-4.8-6.4-9.8c0.3-1.3,1-2.6,1.9-3.7c1.4-1.7,3.2-2.5,5.4-2.6
			c2.2,0,4.4-0.2,6.6-0.2C498.7,300,500.9,300,503.1,300z"/>
	</g>
</g>
</svg>
