<svg id="Layer_1" data-name="Layer 1" xmlns="http://www.w3.org/2000/svg" viewBox="0 0 766 980"><defs><style>.cls-1{fill:#fefefe;}.cls-2{fill:#010101;}</style></defs><title>pipe</title><path class="cls-1" d="M-71.89,89q0-129.88-.11-259.77c0-3.81,1-4.26,4.43-4.25q241.27.14,482.55.08c-5.48,2-11.32,1.39-16.94,2.37C314-157.76,238.51-78.78,249,19.85c6,56.51,31.51,102,78.9,134.33,13.36,9.13,13.28,9,15.22,25,1.88,15.42,4.79,30.88,12.28,44.47,19.61,35.58,49.07,57.83,90.1,63.57,5.36.76,5.85-.75,5.66-5.29a143.88,143.88,0,0,1,1.36-29.4c1.2-7.26,1-8-6.16-9.59a80,80,0,0,1-37.71-20.37c-8.69-8.23-16.44-17.46-18.52-29.53a120.6,120.6,0,0,1,1.23-47.16c1.14-5.08-.3-7.64-4.13-9.71-6.86-3.71-13.81-7.25-20.75-10.82-51.19-26.32-80.4-80.9-73.61-137.59,6.59-54.95,47.4-100.7,101.26-113.83,12.68-3.09,25.59-4.21,38.45-5.91,1.79-.24,4.39.48,4.25-2.76-.6-13.53,1.31-26.86,3.17-40.19q125,0,249.94-.1c3.42,0,4.09.67,4.09,4.1q-.16,285.44-.09,570.88c-1.41-.35-.9-1.56-1.07-2.44-3-14.79-12.61-23.73-27.77-24.77-12.46-.86-25-1.15-37.45-1.32-76.3-1-152.61-1-228.91-.54-29.32.19-58.64.29-87.94,1.73a25.06,25.06,0,0,0-15.33,6.43c-10.56,9-14.19,20.71-12.06,34.11,1.75,11.07,11.33,23.78,25.95,24.26,11.31.37,22.63,1.2,33.94,1.22q161.45.31,322.9.52c6.28,0,10.87-1.63,15.4-6,5-4.83,9.81-9.62,12.34-16.25q0,191.82.08,383.64c0,3.51-.6,4.4-4.3,4.39q-143.85-.19-287.71-.11c.2-.78.78-.92,1.49-.94,29.44-1,56.71-9.8,83.26-22,59.11-27.17,106-67.65,137.56-125,18.56-33.71,30.19-69.69,33.88-108.15,2.57-26.76,2.28-53.57,2.51-80.39,0-5-.91-6.59-6.33-6.58q-162.93.28-325.87-.12c-10.19,0-16.47,2.45-22.16,11.2C294,491.9,275.58,500.08,253,499a58.18,58.18,0,0,1-55.13-52.8c-1.35-15.11-1.71-30.27-1.78-45.43q-.27-57.48-.17-115c0-3.71-.88-4.73-4.67-4.72q-53,.24-105.95,0c-3.58,0-4.36,1-4.34,4.44.16,21.66,0,43.32.09,65,.21,57.15-.71,114.3,1,171.43.64,20.65,1.2,41.43,6.52,61.47C110.53,666,156.88,730.11,232.83,771.14c27.13,14.66,55.68,26,86.28,31.36,5.28.94,10.8.25,15.89,2.39q-201.19,0-402.39.1c-3.75,0-4.59-.85-4.59-4.59q.15-353.68.09-707.36c7.52,12.53,16.69,23.88,25.2,35.7,4.3,6,4.41,6,10.37,2.14A200.07,200.07,0,0,1,47.93,99.6C81,95.12,97.46,117.15,102.15,138c1.85,8.21,2,16.5,1.81,24.83,0,2.13.19,3.21,2.84,3.35,22.13,1.24,44.25,1.84,66.39,0,2-.17,3.34-.15,3.13-2.94-1.17-15.43-1.73-30.91-5.34-46.06A116.71,116.71,0,0,0,38.2,28.78C17.43,32.22-1.69,40-20,50-39.21,60.43-57,72.82-71.89,89ZM645.78,78c0-16.93-3.76-37.49-12.18-53.3-24-45.08-60.07-73.33-112.1-78.43-9.93-1-19.92-1.68-29.91-.23-4.21.61-6.68,1.92-5.71,7,2,10.62,3.67,21.31,5.37,32,.41,2.57,1.86,2.93,4.12,3.07,8,.48,15.95,1,23.9,1.86,63.66,6.7,102.17,77.94,73.23,135.2-7.27,14.37-17.78,26-29.5,36.77-2.31,2.11-2.64,3.35-.19,5.76,5.94,5.83,11.36,12.18,17.23,18.08,9.1,9.15,10.47,20.06,7.46,31.89-2.78,10.88-9,19.1-19.51,23.79-7.07,3.14-7.55,4.39-6.19,11.84.48,2.61.74,5.27,1.26,7.88,1.37,6.84,1.67,13.85,3.64,20.61,1.28,4.38,3.15,6.25,7.77,4,4.31-2.13,9-3.55,13.2-5.82,19-10.26,35.13-24.22,41.66-45.07,6.82-21.75,6-44.11-5.91-64.71-2-3.41-2.1-6,.05-9.34C638.73,136.88,645.61,110.51,645.78,78ZM132.09,190.1c-9,0-18-.13-27,0s-18,.82-26.94.91S61.73,194.35,56,201.44a39.32,39.32,0,0,0-7.59,15C43.17,236.53,54,253.1,74.34,256.27c12.87,2,25.88,1.85,38.86,1.84,28.12,0,56.26.82,84.36-1.13,19.57-1.35,29.25-8.92,32-25.16,3.38-19.59-6.62-36-24.23-39.48A92.79,92.79,0,0,0,195,191C174,189.2,153.06,190.11,132.09,190.1Z" transform="translate(72 175)"/><path d="M335,804.89c-5.09-2.14-10.61-1.45-15.89-2.39-30.6-5.41-59.15-16.7-86.28-31.36-76-41-122.3-105.15-144.22-187.72-5.32-20-5.88-40.82-6.52-61.47-1.76-57.13-.84-114.28-1-171.43-.08-21.66.07-43.32-.09-65,0-3.41.76-4.46,4.34-4.44q53,.21,106,0c3.79,0,4.68,1,4.67,4.72q-.1,57.48.17,115c.07,15.16.43,30.32,1.78,45.43A58.18,58.18,0,0,0,253,499c22.59,1.08,41-7.1,53.33-26.06,5.69-8.75,12-11.24,22.16-11.2q162.93.63,325.87.12c5.42,0,6.37,1.6,6.33,6.58-.23,26.82.06,53.63-2.51,80.39-3.69,38.46-15.32,74.44-33.88,108.15-31.56,57.32-78.45,97.8-137.56,125-26.55,12.2-53.82,21-83.26,22-.71,0-1.29.16-1.49.94Z" transform="translate(72 175)"/><path d="M693.91,417c-2.53,6.63-7.29,11.42-12.34,16.25-4.53,4.33-9.12,6-15.4,6q-161.44-.44-322.9-.52c-11.31,0-22.63-.85-33.94-1.22-14.62-.48-24.2-13.19-25.95-24.26-2.13-13.4,1.5-25.11,12.06-34.11a25.06,25.06,0,0,1,15.33-6.43c29.3-1.44,58.62-1.54,87.94-1.73,76.3-.47,152.61-.5,228.91.54,12.49.17,25,.46,37.45,1.32,15.16,1,24.79,10,27.77,24.77.17.88-.34,2.09,1.07,2.44Z" transform="translate(72 175)"/><path class="cls-2" d="M440-174.9c-1.86,13.33-3.77,26.66-3.17,40.19.14,3.24-2.46,2.52-4.25,2.76-12.86,1.7-25.77,2.82-38.45,5.91-53.86,13.13-94.67,58.88-101.26,113.83-6.79,56.69,22.42,111.27,73.61,137.59,6.94,3.57,13.89,7.11,20.75,10.82,3.83,2.07,5.27,4.63,4.13,9.71a120.6,120.6,0,0,0-1.23,47.16c2.08,12.07,9.83,21.3,18.52,29.53A80,80,0,0,0,446.33,243c7.13,1.62,7.36,2.33,6.16,9.59a143.88,143.88,0,0,0-1.36,29.4c.19,4.54-.3,6.05-5.66,5.29-41-5.74-70.49-28-90.1-63.57-7.49-13.59-10.4-29.05-12.28-44.47-1.94-16-1.86-15.9-15.22-25C280.48,121.81,255,76.36,249,19.85,238.51-78.78,314-157.76,398-172.53c5.62-1,11.46-.41,16.94-2.37Z" transform="translate(72 175)"/><path class="cls-2" d="M-71.89,89C-57,72.82-39.21,60.43-20,50-1.69,40,17.43,32.22,38.2,28.78A116.71,116.71,0,0,1,171,117.15c3.61,15.15,4.17,30.63,5.34,46.06.21,2.79-1.1,2.77-3.13,2.94-22.14,1.83-44.26,1.23-66.39,0-2.65-.14-2.88-1.22-2.84-3.35.16-8.33,0-16.62-1.81-24.83C97.46,117.15,81,95.12,47.93,99.6a200.07,200.07,0,0,0-84.25,31.28c-6,3.91-6.07,3.84-10.37-2.14-8.51-11.82-17.68-23.17-25.2-35.7Z" transform="translate(72 175)"/><path class="cls-2" d="M645.78,78c-.17,32.5-7,58.87-22.31,82.8-2.15,3.37-2,5.93-.05,9.34,11.94,20.6,12.73,43,5.91,64.71-6.53,20.85-22.64,34.81-41.66,45.07-4.22,2.27-8.89,3.69-13.2,5.82-4.62,2.28-6.49.41-7.77-4-2-6.76-2.27-13.77-3.64-20.61-.52-2.61-.78-5.27-1.26-7.88-1.36-7.45-.88-8.7,6.19-11.84,10.55-4.69,16.73-12.91,19.51-23.79,3-11.83,1.64-22.74-7.46-31.89-5.87-5.9-11.29-12.25-17.23-18.08-2.45-2.41-2.12-3.65.19-5.76,11.72-10.73,22.23-22.4,29.5-36.77C621.44,67.9,582.93-3.34,519.27-10c-7.95-.84-15.92-1.38-23.9-1.86-2.26-.14-3.71-.5-4.12-3.07-1.7-10.67-3.34-21.36-5.37-32-1-5.08,1.5-6.39,5.71-7,10-1.45,20-.74,29.91.23,52,5.1,88.11,33.35,112.1,78.43C642,40.52,645.78,61.08,645.78,78Z" transform="translate(72 175)"/><path d="M132.09,190.1c21,0,41.95-.9,62.89.91a92.79,92.79,0,0,1,10.39,1.33C223,195.86,233,212.23,229.6,231.82c-2.79,16.24-12.47,23.81-32,25.16-28.1,1.95-56.24,1.12-84.36,1.13-13,0-26,.16-38.86-1.84C54,253.1,43.17,236.53,48.41,216.44a39.32,39.32,0,0,1,7.59-15c5.73-7.09,13.11-10.3,22.18-10.4s18-.74,26.94-.91S123.1,190.1,132.09,190.1Z" transform="translate(72 175)"/></svg>