<svg xmlns="http://www.w3.org/2000/svg" viewBox="0 0 1094 700"><defs><style>.cls-1{fill:#222;}.cls-2{fill:#fbfcfc;}.cls-3{fill:#3d92cb;}</style></defs><title>Asset 1</title><g id="Layer_2" data-name="Layer 2"><g id="Layer_1-2" data-name="Layer 1"><path class="cls-1" d="M.09,699.91Q.09,352.26,0,4.59C0,.84.84,0,4.59,0Q547,.15,1089.41,0c3.75,0,4.59.84,4.59,4.59q-.15,345.41,0,690.82c0,3.75-.84,4.59-4.59,4.59Q544.74,699.85.09,699.91ZM548,355.08V355q-30.48,0-61,0c-7.16,0-14.36-.37-21.47.23a27,27,0,0,0-25,28.5c.63,14.68,12.54,26,27.53,26.09,3.49,0,7,.14,10.49,0,2.63-.14,4.18.8,5.66,3.05,13.31,20.12,32.06,32,55.78,36,37.34,6.28,74.75-14.89,88.51-50,4.8-12.25,4.55-25.08,4.64-37.93,0-4.43-.93-6-5.76-6C601,355.21,574.48,355.08,548,355.08Zm31.82-94.37c.38-6.69-2.13-11.83-7.64-15.34-2.74-1.75-5.38-1.21-7.68,1.1s-2.62,4.75-.65,7.15c3.92,4.78,3.25,9.73,1.17,14.94-2.7,6.75-3.28,13.53.27,20.23a5,5,0,0,1,.27,4.75c-3.47,7.33-3.35,14.57-.09,22.08,2,4.59,3,9.49-1.53,13.8-2.43,2.29-1.82,5.09.46,7.51s4.85,3.6,7.84,1.21a23,23,0,0,0,3.93-3.76c4.93-6.46,4.72-13.6,2-20.75-2.16-5.77-4.08-11.05.68-16.75,2.57-3.08,2.26-7.52-.29-10.76-3.89-4.94-3.35-9.85-1-14.95A20.72,20.72,0,0,0,579.81,260.71Zm-54.37,61c.71,6.43,2.24,11.74,7,15.61,2.57,2.09,5,3.18,8,.63,3.17-2.69,3.64-6,1.1-8.74-4.28-4.6-2.83-9.07-1-13.88,2.51-6.75,3.27-13.57.14-20.38-.79-1.73-1.23-3.48-.37-5.29,3.6-7.61,2.92-15.17-.11-22.75-1.82-4.58-2.23-8.87,1.69-12.93,2.67-2.77,1.92-5.8-1.12-8.16-3.79-2.95-9.78-.21-12.57,5-4,7.45-2.56,14.46.51,21.58,2,4.56,2.47,9.15-.8,13.24-3.38,4.25-2.67,8.11-.09,12.38,2.42,4,3.07,8.21,1,12.85C527.16,314.45,526.4,318.43,525.44,321.68Z"/><path class="cls-2" d="M548,355.08c26.49,0,53,.13,79.45-.12,4.83,0,5.79,1.54,5.76,6-.09,12.85.16,25.68-4.64,37.93-13.76,35.09-51.17,56.26-88.51,50-23.72-4-42.47-15.87-55.78-36-1.48-2.25-3-3.19-5.66-3.05-3.49.18-7,.06-10.49,0-15-.11-26.9-11.41-27.53-26.09a27,27,0,0,1,25-28.5c7.11-.6,14.31-.23,21.47-.23q30.48,0,61,0Zm-78.4,35.36c4.87.09,4.81.1,4.14-4.53a70.51,70.51,0,0,1-.83-8.44c0-2.52-.95-3.54-3.55-3.57-5.45-.07-9.47,3.08-9.69,7.92C459.42,387.05,463.19,390.32,469.59,390.44Z"/><path class="cls-3" d="M579.81,260.71a20.72,20.72,0,0,1-2.2,10.46c-2.38,5.1-2.92,10,1,14.95,2.55,3.24,2.86,7.68.29,10.76-4.76,5.7-2.84,11-.68,16.75,2.69,7.15,2.9,14.29-2,20.75a23,23,0,0,1-3.93,3.76c-3,2.39-5.51,1.26-7.84-1.21s-2.89-5.22-.46-7.51c4.57-4.31,3.53-9.21,1.53-13.8-3.26-7.51-3.38-14.75.09-22.08a5,5,0,0,0-.27-4.75c-3.55-6.7-3-13.48-.27-20.23,2.08-5.21,2.75-10.16-1.17-14.94-2-2.4-1.57-4.93.65-7.15s4.94-2.85,7.68-1.1C577.68,248.88,580.19,254,579.81,260.71Z"/><path class="cls-3" d="M525.44,321.68c1-3.25,1.72-7.23,3.32-10.84,2.06-4.64,1.41-8.85-1-12.85-2.58-4.27-3.29-8.13.09-12.38,3.27-4.09,2.78-8.68.8-13.24-3.07-7.12-4.5-14.13-.51-21.58,2.79-5.21,8.78-7.95,12.57-5,3,2.36,3.79,5.39,1.12,8.16-3.92,4.06-3.51,8.35-1.69,12.93,3,7.58,3.71,15.14.11,22.75-.86,1.81-.42,3.56.37,5.29,3.13,6.81,2.37,13.63-.14,20.38-1.79,4.81-3.24,9.28,1,13.88,2.54,2.73,2.07,6.05-1.1,8.74-3,2.55-5.39,1.46-8-.63C527.68,333.42,526.15,328.11,525.44,321.68Z"/><path class="cls-1" d="M469.59,390.44c-6.4-.12-10.17-3.39-9.93-8.62.22-4.84,4.24-8,9.69-7.92,2.6,0,3.5,1.05,3.55,3.57a70.51,70.51,0,0,0,.83,8.44C474.4,390.54,474.46,390.53,469.59,390.44Z"/></g></g></svg>